<svg width="40" height="40" viewBox="0 0 40 40" fill="none" xmlns="http://www.w3.org/2000/svg">
  <circle cx="20" cy="20" r="20" fill="#339999"/>
  <path d="M20 12C18.9 12 18 12.9 18 14C18 15.1 18.9 16 20 16C21.1 16 22 15.1 22 14C22 12.9 21.1 12 20 12ZM20 24C17.2 24 14.8 22.4 14 20H12.1C13 23.5 16.2 26 20 26C23.8 26 27 23.5 27.9 20H26C25.2 22.4 22.8 24 20 24ZM20 10C22.2 10 24 11.8 24 14C24 16.2 22.2 18 20 18C17.8 18 16 16.2 16 14C16 11.8 17.8 10 20 10ZM20 22C22.7 22 25.8 23.3 26 25.3V26H14V25.3C14.2 23.3 17.3 22 20 22Z" fill="white"/>
</svg> 